<svg width="70" height="46" viewBox="0 0 70 46" fill="none" xmlns="http://www.w3.org/2000/svg">
<rect x="0.835821" y="0.835821" width="68.3284" height="44.3284" fill="white"/>
<path d="M28.1732 36.319V34.5795C28.1833 34.4336 28.1623 34.2872 28.1116 34.1501C28.061 34.013 27.9818 33.8883 27.8794 33.7843C27.777 33.6803 27.6536 33.5995 27.5177 33.5472C27.3817 33.4948 27.2362 33.4722 27.0908 33.4808C26.9 33.4682 26.7094 33.5073 26.5388 33.594C26.3682 33.6807 26.2239 33.8118 26.1209 33.9736C26.0271 33.8167 25.8928 33.688 25.7323 33.6013C25.5718 33.5145 25.3909 33.4729 25.2088 33.4808C25.0501 33.4727 24.892 33.5065 24.7502 33.5787C24.6085 33.6509 24.4879 33.759 24.4006 33.8924V33.5504H23.8002V36.319H24.4064V34.7854C24.393 34.6905 24.4007 34.5938 24.429 34.5023C24.4574 34.4108 24.5056 34.3268 24.5703 34.2563C24.6349 34.1858 24.7143 34.1307 24.8028 34.0948C24.8913 34.059 24.9866 34.0433 25.0818 34.049C25.4802 34.049 25.6822 34.3099 25.6822 34.7796V36.319H26.2884V34.7854C26.276 34.6907 26.2845 34.5944 26.3132 34.5034C26.3419 34.4124 26.3902 34.3288 26.4546 34.2586C26.5191 34.1883 26.598 34.1332 26.686 34.097C26.774 34.0607 26.8688 34.0444 26.9638 34.049C27.3737 34.049 27.5699 34.3099 27.5699 34.7796V36.319H28.1732ZM31.5503 34.9361V33.5533H30.9442V33.8896C30.8424 33.7576 30.7107 33.652 30.5601 33.5814C30.4095 33.5108 30.2443 33.4773 30.0783 33.4837C29.6955 33.4837 29.3284 33.6364 29.0577 33.9082C28.7871 34.1801 28.635 34.5488 28.635 34.9332C28.635 35.3177 28.7871 35.6864 29.0577 35.9582C29.3284 36.2301 29.6955 36.3828 30.0783 36.3828C30.2443 36.3892 30.4095 36.3557 30.5601 36.2851C30.7107 36.2145 30.8424 36.1089 30.9442 35.9769V36.3132H31.5446L31.5503 34.9361ZM29.3191 34.9361C29.3287 34.773 29.3856 34.6162 29.4827 34.4851C29.5799 34.354 29.7131 34.2544 29.8659 34.1983C30.0188 34.1423 30.1846 34.1324 30.343 34.1699C30.5014 34.2073 30.6454 34.2905 30.7573 34.4091C30.8693 34.5277 30.9442 34.6766 30.9729 34.8375C31.0017 34.9983 30.9829 35.1641 30.919 35.3144C30.8552 35.4647 30.7489 35.593 30.6134 35.6834C30.4778 35.7738 30.3189 35.8224 30.1562 35.8233C30.0413 35.826 29.9271 35.8046 29.8209 35.7604C29.7148 35.7162 29.6189 35.6503 29.5396 35.5668C29.4603 35.4832 29.3992 35.384 29.3602 35.2754C29.3212 35.1668 29.3053 35.0513 29.3134 34.9361H29.3191ZM44.3777 33.4866C44.5754 33.4861 44.7713 33.5235 44.955 33.5967C45.1303 33.6673 45.2902 33.7717 45.4255 33.904C45.559 34.0352 45.665 34.192 45.7372 34.365C45.888 34.7367 45.888 35.1529 45.7372 35.5247C45.6651 35.6977 45.5591 35.8545 45.4255 35.9856C45.2902 36.118 45.1303 36.2224 44.955 36.2929C44.5744 36.4415 44.1522 36.4415 43.7716 36.2929C43.597 36.2225 43.4381 36.118 43.304 35.9856C43.1717 35.854 43.0667 35.6973 42.9951 35.5247C42.8446 35.1529 42.8446 34.7368 42.9951 34.365C43.0667 34.1924 43.1717 34.0357 43.304 33.904C43.4381 33.7716 43.597 33.6672 43.7716 33.5967C43.9619 33.5175 44.1659 33.4771 44.3719 33.4779L44.3777 33.4866ZM44.3777 34.0664C44.2602 34.0648 44.1434 34.0865 44.0342 34.1302C43.9314 34.1716 43.838 34.2338 43.76 34.3128C43.6804 34.3961 43.6185 34.4947 43.5782 34.6027C43.49 34.8342 43.49 35.0902 43.5782 35.3217C43.6185 35.4298 43.6803 35.5285 43.76 35.6116C43.838 35.6908 43.9313 35.7529 44.0342 35.7943C44.2541 35.8808 44.4984 35.8808 44.7183 35.7943C44.8261 35.7542 44.9244 35.692 45.007 35.6116C45.0867 35.5286 45.1486 35.4299 45.1888 35.3217C45.277 35.0902 45.277 34.8342 45.1888 34.6027C45.1486 34.4946 45.0867 34.3959 45.007 34.3128C44.9244 34.2324 44.8261 34.1702 44.7183 34.1302C44.6094 34.0801 44.4916 34.0525 44.3719 34.049L44.3777 34.0664ZM34.812 34.9361C34.812 34.0664 34.2751 33.4866 33.5045 33.4866C33.1217 33.492 32.7567 33.6498 32.4899 33.9255C32.223 34.2011 32.0761 34.572 32.0815 34.9564C32.0868 35.3409 32.244 35.7074 32.5184 35.9755C32.7929 36.2435 33.1621 36.3911 33.5449 36.3857C33.9558 36.3998 34.3575 36.2615 34.6735 35.9972L34.3848 35.5507C34.1569 35.7343 33.8745 35.8364 33.5824 35.8407C33.3839 35.8578 33.1867 35.7965 33.0325 35.6698C32.8783 35.5431 32.7794 35.361 32.7569 35.1623H34.8034C34.812 35.0898 34.812 35.0173 34.812 34.9361ZM32.7598 34.6926C32.7709 34.5086 32.8526 34.336 32.9877 34.2111C33.1228 34.0863 33.3007 34.0188 33.4843 34.0229C33.5741 34.021 33.6634 34.0369 33.7472 34.0696C33.8309 34.1024 33.9074 34.1514 33.9723 34.2139C34.0371 34.2763 34.0891 34.351 34.1252 34.4336C34.1614 34.5163 34.1809 34.6053 34.1828 34.6955L32.7598 34.6926ZM37.3377 34.2577C37.0741 34.1053 36.7759 34.0234 36.4717 34.02C36.1427 34.02 35.9464 34.1418 35.9464 34.3447C35.9464 34.5476 36.1542 34.5824 36.414 34.6172L36.7026 34.6578C37.303 34.7448 37.6667 34.9999 37.6667 35.487C37.6667 35.974 37.2049 36.3915 36.4111 36.3915C35.9857 36.4029 35.5679 36.2769 35.219 36.032L35.5077 35.5623C35.7726 35.7597 36.0959 35.8618 36.4255 35.8523C36.8354 35.8523 37.0548 35.7305 37.0548 35.516C37.0548 35.3594 36.8989 35.2724 36.5699 35.226L36.2812 35.1855C35.6635 35.0985 35.3287 34.8202 35.3287 34.3679C35.3287 33.8171 35.779 33.4808 36.4833 33.4808C36.8775 33.4675 37.2672 33.5681 37.6061 33.7707L37.3377 34.2577ZM40.2241 34.1012H39.2456V35.3507C39.2456 35.6406 39.3437 35.8146 39.6439 35.8146C39.8313 35.8083 40.014 35.7545 40.175 35.658L40.3482 36.1741C40.1232 36.3151 39.863 36.3895 39.5977 36.3886C38.8877 36.3886 38.6395 36.0059 38.6395 35.3623V34.1012H38.0795V33.5504H38.6395V32.7096H39.2456V33.5504H40.2241V34.1012ZM42.2995 33.4808C42.4451 33.4813 42.5896 33.5068 42.7267 33.5562L42.5419 34.136C42.4226 34.0882 42.2951 34.0646 42.1667 34.0664C41.7741 34.0664 41.5894 34.3215 41.5894 34.7796V36.3306H40.989V33.562H41.5836V33.8983C41.6573 33.7711 41.7638 33.6663 41.8918 33.5949C42.0198 33.5235 42.1646 33.4881 42.311 33.4924L42.2995 33.4808ZM46.4502 35.916C46.4877 35.9156 46.525 35.9225 46.5599 35.9363C46.593 35.9499 46.6234 35.9696 46.6493 35.9943C46.6747 36.0193 46.6953 36.0488 46.71 36.0813C46.7246 36.1151 46.7321 36.1516 46.7321 36.1886C46.7321 36.2255 46.7246 36.262 46.71 36.2958C46.6953 36.3283 46.6747 36.3578 46.6493 36.3828C46.6234 36.4075 46.593 36.4272 46.5599 36.4408C46.5253 36.4561 46.4879 36.464 46.4502 36.464C46.3955 36.4636 46.342 36.4475 46.296 36.4178C46.25 36.388 46.2134 36.3457 46.1904 36.2958C46.1759 36.2619 46.1685 36.2254 46.1685 36.1886C46.1685 36.1517 46.1759 36.1152 46.1904 36.0813C46.2051 36.0488 46.2256 36.0193 46.251 35.9943C46.277 35.9696 46.3073 35.9499 46.3405 35.9363C46.3709 35.9242 46.4031 35.9173 46.4357 35.916H46.4502ZM46.4502 36.406C46.479 36.4062 46.5075 36.4002 46.5339 36.3886C46.5587 36.3775 46.5812 36.3617 46.6003 36.3422C46.6248 36.3174 46.6428 36.2871 46.653 36.2537C46.6631 36.2203 46.665 36.1849 46.6585 36.1507C46.6519 36.1164 46.6372 36.0842 46.6155 36.057C46.5937 36.0297 46.5657 36.0082 46.5339 35.9943C46.5075 35.9827 46.479 35.9768 46.4502 35.9769C46.4214 35.9771 46.3929 35.983 46.3665 35.9943C46.3405 36.005 46.317 36.0208 46.2972 36.0407C46.2611 36.0803 46.2411 36.132 46.2411 36.1856C46.2411 36.2393 46.2611 36.291 46.2972 36.3306C46.3172 36.3509 46.341 36.3671 46.3673 36.378C46.3935 36.389 46.4217 36.3945 46.4502 36.3944V36.406ZM46.4675 36.061C46.4944 36.0597 46.521 36.0679 46.5425 36.0842C46.5514 36.0915 46.5583 36.1009 46.5629 36.1115C46.5674 36.1221 46.5693 36.1336 46.5685 36.1451C46.5689 36.1547 46.5674 36.1643 46.5639 36.1733C46.5604 36.1823 46.5551 36.1904 46.5483 36.1972C46.5316 36.2125 46.5102 36.2217 46.4877 36.2233L46.5714 36.319H46.505L46.4271 36.2233H46.4011V36.319H46.3463V36.0523L46.4675 36.061ZM46.404 36.1103V36.1799H46.4675C46.4788 36.1832 46.4908 36.1832 46.5021 36.1799C46.5042 36.1758 46.5052 36.1713 46.5052 36.1668C46.5052 36.1623 46.5042 36.1578 46.5021 36.1538C46.5042 36.1497 46.5052 36.1452 46.5052 36.1407C46.5052 36.1362 46.5042 36.1317 46.5021 36.1277C46.4908 36.1243 46.4788 36.1243 46.4675 36.1277L46.404 36.1103Z" fill="#000008"/>
<path d="M39.3582 12.4274H30.2659V28.8393H39.3582V12.4274Z" fill="#7673C0"/>
<path d="M30.8432 20.6348C30.8415 19.054 31.1979 17.4935 31.8856 16.0716C32.5732 14.6496 33.5739 13.4034 34.812 12.4274C33.2791 11.2174 31.4381 10.4649 29.4995 10.2561C27.5609 10.0472 25.6029 10.3904 23.8493 11.2463C22.0957 12.1022 20.6173 13.4364 19.5829 15.0964C18.5485 16.7563 18 18.6751 18 20.6334C18 22.5916 18.5485 24.5104 19.5829 26.1704C20.6173 27.8303 22.0957 29.1645 23.8493 30.0204C25.6029 30.8764 27.5609 31.2195 29.4995 31.0106C31.4381 30.8018 33.2791 30.0493 34.812 28.8393C33.5743 27.8636 32.5738 26.6179 31.8862 25.1965C31.1986 23.775 30.8419 22.2151 30.8432 20.6348Z" fill="#EB001B"/>
<path d="M50.6326 27.0998V26.7751H50.7683V26.7055H50.4248V26.7751H50.5605V27.1114L50.6326 27.0998ZM51.2994 27.0998V26.6939H51.1955L51.0743 26.9839L50.953 26.6939H50.8462V27.0998H50.9213V26.7954L51.0339 27.0592H51.1118L51.2243 26.7954V27.1027L51.2994 27.0998Z" fill="#00A1DF"/>
<path d="M51.6227 20.6348C51.6222 22.5927 51.0734 24.511 50.039 26.1705C49.0046 27.83 47.5263 29.1638 45.773 30.0195C44.0197 30.8752 42.0621 31.2183 40.1238 31.0096C38.1856 30.8009 36.3449 30.0489 34.812 28.8393C36.0492 27.8627 37.0495 26.6167 37.7373 25.1952C38.425 23.7736 38.7824 22.2138 38.7824 20.6333C38.7824 19.0529 38.425 17.493 37.7373 16.0715C37.0495 14.65 36.0492 13.404 34.812 12.4274C36.3449 11.217 38.1859 10.4642 40.1246 10.255C42.0633 10.0459 44.0214 10.3888 45.7752 11.2446C47.5291 12.1004 49.0078 13.4346 50.0423 15.0946C51.0769 16.7546 51.6255 18.6735 51.6256 20.6319L51.6227 20.6348Z" fill="#00A1DF"/>
<rect x="0.835821" y="0.835821" width="68.3284" height="44.3284" stroke="#D6DCE5" stroke-width="0.328358"/>
</svg>
