<svg width="70" height="46" viewBox="0 0 70 46" fill="none" xmlns="http://www.w3.org/2000/svg">
<rect x="0.835821" y="0.835821" width="68.3284" height="44.3284" fill="white"/>
<path d="M39.8865 14.2931H29.8745V32.3639H39.8865V14.2931Z" fill="#FF5F00"/>
<path d="M30.5102 23.3285C30.5086 21.5881 30.9013 19.8702 31.6585 18.3048C32.4156 16.7394 33.5174 15.3675 34.8805 14.293C33.1925 12.9604 31.1653 12.1317 29.0306 11.9016C26.8958 11.6714 24.7397 12.0492 22.8086 12.9917C20.8775 13.9341 19.2494 15.4033 18.1103 17.2312C16.9712 19.0591 16.3672 21.172 16.3672 23.3285C16.3672 25.4849 16.9712 27.5978 18.1103 29.4257C19.2494 31.2537 20.8775 32.7228 22.8086 33.6653C24.7397 34.6078 26.8958 34.9855 29.0306 34.7554C31.1653 34.5252 33.1925 33.6965 34.8805 32.3639C33.5174 31.2894 32.4156 29.9175 31.6585 28.3521C30.9013 26.7867 30.5087 25.0688 30.5102 23.3285Z" fill="#EB001B"/>
<path d="M53.3933 23.3285C53.3933 25.4849 52.7894 27.5978 51.6504 29.4257C50.5113 31.2536 48.8833 32.7228 46.9522 33.6653C45.0212 34.6077 42.865 34.9855 40.7303 34.7554C38.5956 34.5252 36.5684 33.6965 34.8805 32.3639C36.2424 31.2883 37.3433 29.9162 38.1004 28.3511C38.8574 26.7859 39.2508 25.0686 39.2508 23.3285C39.2508 21.5884 38.8574 19.871 38.1004 18.3059C37.3433 16.7407 36.2424 15.3686 34.8805 14.293C36.5684 12.9604 38.5956 12.1317 40.7303 11.9016C42.865 11.6714 45.0212 12.0492 46.9522 12.9917C48.8833 13.9342 50.5113 15.4033 51.6504 17.2312C52.7894 19.0592 53.3933 21.1721 53.3933 23.3285Z" fill="#F79E1B"/>
<path d="M52.3016 30.4499V30.08H52.4501V30.0046H52.0719V30.08H52.2205V30.4499H52.3016ZM53.036 30.4499V30.0039H52.92L52.7867 30.3107L52.6533 30.0039H52.5373V30.4499H52.6191V30.1134L52.7442 30.4035H52.8291L52.9542 30.1127V30.4499H53.036Z" fill="#F79E1B"/>
<rect x="0.835821" y="0.835821" width="68.3284" height="44.3284" stroke="#D6DCE5" stroke-width="0.328358"/>
</svg>
