<svg width="25" height="25" viewBox="0 0 25 25" fill="none" xmlns="http://www.w3.org/2000/svg">
<path d="M22.3098 10.7388C22.6911 10.3452 22.4661 9.68882 21.9286 9.60136L16.1662 8.72017C15.9412 8.68889 15.7537 8.54527 15.66 8.34517L13.1039 2.88909C12.8664 2.3703 12.1351 2.3703 11.8914 2.88909L9.34154 8.34517C9.24149 8.54512 9.05398 8.68889 8.83535 8.72017L3.06689 9.60136C2.52943 9.68881 2.31064 10.3452 2.69188 10.7388L6.9042 15.0638C7.0542 15.22 7.11676 15.4326 7.08548 15.6449L6.09802 21.7195C6.0042 22.2694 6.59177 22.6883 7.07925 22.4132L12.1727 19.5946C12.379 19.4821 12.6227 19.4821 12.8226 19.5946L17.916 22.4132C18.4036 22.6881 18.991 22.2694 18.9035 21.7195L17.916 15.6449C17.8785 15.4324 17.9473 15.22 18.0973 15.0638L22.3098 10.7388Z" fill="#111111"/>
</svg>
