<svg width="70" height="46" viewBox="0 0 70 46" fill="none" xmlns="http://www.w3.org/2000/svg">
<rect x="0.835821" y="0.835821" width="68.3284" height="44.3284" fill="white"/>
<path d="M34.5846 15.8271L31.4129 30.7186H27.5776L30.7498 15.8271H34.5846ZM50.7211 25.4426L52.7404 19.8503L53.9023 25.4426H50.7211ZM55.0004 30.7186H58.548L55.4523 15.8271H52.1777C51.4419 15.8271 50.8211 16.257 50.5447 16.9196L44.7906 30.7186H48.8183L49.6179 28.4949H54.5386L55.0004 30.7186ZM44.9905 25.8564C45.0069 21.926 39.579 21.7097 39.6165 19.954C39.6278 19.4191 40.135 18.8516 41.243 18.706C41.7934 18.6338 43.3068 18.5787 45.0252 19.3729L45.6982 16.215C44.7751 15.8785 43.5874 15.5547 42.1102 15.5547C38.3195 15.5547 35.6512 17.579 35.6287 20.4777C35.6048 22.6212 37.5334 23.8175 38.9868 24.5301C40.4809 25.2602 40.983 25.7277 40.9764 26.3805C40.9666 27.3802 39.7845 27.8204 38.6817 27.8379C36.7531 27.8685 35.6339 27.3152 34.7418 26.8976L34.0468 30.1605C34.9426 30.5739 36.5968 30.933 38.3129 30.9514C42.3415 30.9514 44.9774 28.9521 44.9905 25.8564ZM29.1041 15.8271L22.8901 30.7186H18.8352L15.7775 18.8342C15.5916 18.1022 15.4302 17.8345 14.8657 17.5258C13.9445 17.0238 12.4218 16.552 11.082 16.2598L11.1735 15.8271H17.6996C18.5311 15.8271 19.2796 16.3833 19.4682 17.3452L21.0834 25.9629L25.0745 15.8271H29.1041Z" fill="#1434CB"/>
<rect x="0.835821" y="0.835821" width="68.3284" height="44.3284" stroke="#D6DCE5" stroke-width="0.328358"/>
</svg>
